<?xml version="1.0" encoding="utf-8"?>
<!-- Generator: Adobe Illustrator 25.0.0, SVG Export Plug-In . SVG Version: 6.00 Build 0)  -->
<svg version="1.1" id="Layer_1" xmlns="http://www.w3.org/2000/svg" xmlns:xlink="http://www.w3.org/1999/xlink" x="0px" y="0px"
	 viewBox="0 0 464.9 71.9" style="enable-background:new 0 0 464.9 71.9;" xml:space="preserve">
<style type="text/css">
	.st0{fill:#B58863;}
	.st1{fill:#DBB783;}
	.st2{display:none;fill:#DBB783;}
</style>
<path class="st0" d="M13.7,26.4v19.3c-0.1,2.4,0.4,4.8,1.4,7c0.8,1.9,2.2,3.4,4,4.4c1.9,1.1,4.1,1.6,6.3,1.5c1.8,0,3.6-0.4,5.2-1.3
	c1.6-0.9,2.9-2.2,3.9-3.7c1.1-1.8,1.9-3.9,2.3-6h13.7c-0.7,4.7-2.3,9.1-4.8,13.2c-2.1,3.5-5.1,6.3-8.6,8.3
	c-3.6,1.9-7.7,2.9-11.8,2.8c-4.8,0.1-9.5-0.9-13.7-3.1c-3.8-2-6.8-5.1-8.7-8.9c-2.1-4.4-3.1-9.3-3-14.2V26.4
	c-0.1-4.9,0.9-9.8,3-14.2c1.9-3.8,4.9-7,8.7-9c4.2-2.2,9-3.2,13.7-3.1c4.1-0.1,8.2,0.9,11.8,2.9c3.5,2,6.5,4.8,8.6,8.3
	c2.4,4,4,8.5,4.7,13.1H36.9c-0.4-2.1-1.2-4.1-2.4-5.9c-1-1.6-2.3-2.8-3.9-3.8c-1.6-0.9-3.3-1.3-5.1-1.3c-2.2-0.1-4.4,0.5-6.3,1.5
	c-1.8,1-3.2,2.6-4,4.4C14.1,21.6,13.7,24,13.7,26.4z M95.2,29.9H70v-29H56.8v70.3H70V42.7h25.2v28.5h13.2V0.9H95.2V29.9z M123.8,0.9
	H119v70.3H166V58.4h-33.8V42.6h28.5V29.9h-28.5V13.6H166V0.9L123.8,0.9L123.8,0.9z M211.6,33.2c-3.6-1.4-7.3-2.5-11.1-3.2
	c-0.2,0-0.4-0.1-0.6-0.1s-0.4-0.1-0.6-0.1c-0.1,0-0.3-0.1-0.4-0.1c-0.1,0-0.3,0-0.4-0.1c-2.4-0.4-4.8-1-7.2-1.7
	c-1.6-0.5-3.1-1.4-4.3-2.6c-1.2-1.3-1.8-3-1.7-4.8l0,0c-0.1-2.4,1.2-4.6,3.4-5.7c2.2-1.3,5.4-2,9.4-2c2.9,0,5.8,0.6,8.5,1.5
	c3,1.1,5.9,2.5,8.5,4.3l5.6-11.2c-4.5-3.1-9.5-5.3-14.9-6.5c-2.5-0.6-5.1-0.9-7.7-0.9c-4.8-0.1-9.6,0.7-14,2.5
	c-3.6,1.5-6.7,4.1-8.8,7.4c-2.1,3.5-3.1,7.6-3,11.7l0,0c0,5.1,1.1,9.1,3.2,11.9c2,2.7,4.7,4.7,7.9,5.8c3.8,1.3,7.7,2.2,11.7,2.8
	l1.1,0.2c0.1,0,0.2,0,0.3,0c0.1,0,0.2,0,0.3,0c2.2,0.3,4.4,0.8,6.6,1.4c1.6,0.4,3,1.3,4.2,2.4c1.1,1.3,1.7,2.9,1.5,4.6l0,0
	c0.1,2.6-1.3,5-3.6,6.2c-2.4,1.5-5.7,2.2-10,2.2c-3.7,0-7.4-0.6-10.9-1.8c-3.4-1.1-6.6-2.9-9.4-5.1l-6.1,10.9
	c2.3,1.9,4.9,3.5,7.6,4.7c2.9,1.3,5.9,2.3,9,3c3.2,0.7,6.5,1,9.8,1c4.9,0.1,9.9-0.7,14.5-2.5c3.7-1.4,6.9-4,9.2-7.3
	c2.2-3.4,3.3-7.4,3.1-11.5v-0.1c0-4.8-1-8.5-3-11.3C217.2,36.5,214.6,34.4,211.6,33.2L211.6,33.2z M273.1,39.2
	c-1.9-2.7-4.5-4.7-7.5-6c-3.6-1.4-7.3-2.5-11.1-3.2c-0.2,0-0.4-0.1-0.6-0.1c-0.2-0.1-0.3-0.1-0.5-0.2c-0.1,0-0.3-0.1-0.4-0.1
	c-0.1,0-0.3,0-0.4-0.1c-2.4-0.4-4.8-1-7.2-1.7c-1.6-0.5-3.1-1.4-4.3-2.6c-1.2-1.3-1.8-3-1.7-4.8l0,0c-0.1-2.4,1.2-4.6,3.3-5.7
	c2.2-1.3,5.4-2,9.4-2c2.9,0,5.8,0.6,8.5,1.5c3,1.1,5.9,2.5,8.5,4.3l5.6-11.2c-2.2-1.6-4.6-2.9-7.1-4c-2.5-1.1-5.1-1.9-7.7-2.5
	c-2.5-0.6-5.1-0.9-7.7-0.9c-4.8-0.1-9.6,0.7-14,2.5c-3.6,1.5-6.7,4.1-8.9,7.4c-2.1,3.5-3.1,7.6-3,11.7l0,0c0,5.1,1.1,9.1,3.2,11.9
	c2,2.7,4.7,4.7,7.9,5.8c3.8,1.3,7.7,2.2,11.7,2.8l1.1,0.2c0.1,0,0.2,0,0.3,0c0.1,0,0.2,0,0.3,0c2.2,0.3,4.4,0.8,6.6,1.4
	c1.6,0.4,3,1.3,4.2,2.4c1.1,1.2,1.7,2.8,1.6,4.4l0,0c0.1,2.6-1.3,5-3.6,6.2c-2.4,1.5-5.7,2.2-10.1,2.2c-3.7,0.1-7.4-0.4-10.9-1.6
	c-3.4-1.1-6.6-2.9-9.4-5.1l-6.1,10.9c2.3,1.9,4.8,3.5,7.5,4.7c2.9,1.3,5.9,2.3,9,3c3.2,0.7,6.5,1,9.8,1c4.9,0.1,9.9-0.7,14.5-2.5
	c3.7-1.4,6.9-4,9.2-7.3c2.2-3.4,3.3-7.4,3.1-11.5v-0.1C276.1,45.7,275.1,41.9,273.1,39.2L273.1,39.2z"/>
<path class="st1" d="M281.7,65.5l26.4-34.6c1.6-2,2.9-4.3,4-6.7c0.9-1.8,1.4-3.8,1.4-5.8v-0.1c0-3.7-1.1-6.6-3.2-8.7
	c-2.2-2-5.2-3.1-9.1-3.1c-3.3-0.1-6.5,1-8.9,3.3c-2.3,2.2-3.7,5.3-4.2,9.3l0,0h-7.3l0,0c0.4-3.6,1.7-7.2,3.5-10.3
	c1.7-2.8,4.1-5,6.9-6.5c3-1.5,6.4-2.3,9.8-2.2c3.7-0.1,7.4,0.6,10.7,2.2c2.9,1.3,5.2,3.5,6.8,6.3c1.6,3,2.4,6.5,2.3,9.9v0
	c-0.1,2.6-0.8,5.2-1.9,7.5c-1.4,3.1-3.2,6-5.3,8.7l-23.2,29.9h30.9v6.5h-39.6V65.5z M334,66.6c-3.4-3.5-5.1-8.4-5.1-14.7V20
	c0-6.3,1.7-11.2,5.1-14.7C337.5,1.7,342.4,0,349,0c6.6,0,11.6,1.7,15,5.2c3.4,3.5,5.1,8.4,5.1,14.7v31.9c0,6.3-1.7,11.2-5.1,14.7
	c-3.4,3.5-8.4,5.2-14.9,5.2C342.4,71.8,337.4,70.1,334,66.6z M358.9,61.9c2.1-2.3,3.2-5.7,3.2-10V20c0-4.3-1.1-7.7-3.2-10
	s-5.4-3.5-9.9-3.5c-4.5,0-7.8,1.2-9.9,3.5c-2.1,2.3-3.2,5.7-3.2,10v31.9c0,4.3,1.1,7.6,3.2,10c2.1,2.4,5.4,3.5,9.9,3.5
	C353.4,65.4,356.7,64.2,358.9,61.9z M377.5,65.5l26.4-34.6c1.6-2,2.9-4.3,4-6.7c0.9-1.8,1.4-3.8,1.5-5.8v-0.1c0-3.7-1.1-6.6-3.2-8.7
	c-2.2-2-5.2-3.1-9.1-3.1c-3.3-0.1-6.5,1-8.9,3.3c-2.3,2.2-3.7,5.3-4.2,9.3l0,0h-7.3l0,0c0.4-3.6,1.7-7.2,3.5-10.3
	c1.7-2.8,4.1-5,6.9-6.5c3-1.5,6.4-2.3,9.8-2.2c3.7-0.1,7.4,0.6,10.7,2.2c2.8,1.3,5.2,3.5,6.7,6.3c1.6,3,2.4,6.5,2.3,9.9v0
	c-0.1,2.6-0.7,5.2-1.9,7.5c-1.4,3.1-3.2,6-5.4,8.7l-23.2,29.9h30.9v6.5h-39.6V65.5z M429.8,66.6c-3.4-3.5-5.1-8.4-5.1-14.7V20
	c0-6.3,1.7-11.2,5.1-14.7c3.4-3.5,8.4-5.2,14.9-5.2c6.6,0,11.6,1.7,15,5.2s5.1,8.4,5.1,14.7v31.9c0,6.3-1.7,11.2-5.1,14.7
	c-3.4,3.5-8.4,5.2-14.9,5.2C438.2,71.8,433.2,70.1,429.8,66.6z M454.7,61.9c2.1-2.3,3.2-5.7,3.2-10V20c0-4.3-1.1-7.7-3.2-10
	s-5.4-3.5-9.9-3.5c-4.5,0-7.8,1.2-9.9,3.5s-3.2,5.7-3.2,10v31.9c0,4.3,1.1,7.6,3.2,10c2.1,2.4,5.4,3.5,9.9,3.5
	C449.3,65.4,452.6,64.2,454.7,61.9z"/>
<path class="st2" d="M290.3,65.3h37.9V72h-37.9h-2h-4.9V0h6.9V65.3z M333.2,72h6.9V0h-6.9V72z M345.1,6.6h21.2V72h6.9V6.6h21.2V0
	h-49.3V6.6z M443.9,6.6V0h-37.9h-2.2H399v72h4.8h2.2h37.9v-6.6h-37.9V39.5h32.7v-6.6h-32.7V6.6H443.9z"/>
</svg>
