<?xml version="1.0" encoding="utf-8"?>
<!-- Generator: Adobe Illustrator 25.0.0, SVG Export Plug-In . SVG Version: 6.00 Build 0)  -->
<svg version="1.1" id="Layer_1" xmlns="http://www.w3.org/2000/svg" xmlns:xlink="http://www.w3.org/1999/xlink" x="0px" y="0px"
	 viewBox="0 0 600 600" style="enable-background:new 0 0 600 600;" xml:space="preserve">
<style type="text/css">
	.st0{fill:#FFFFFF;}
</style>
<image style="display:none;overflow:visible;" width="608" height="608" xlink:href="330B091D.jpg"  transform="matrix(1 0 0 1 -3.5924 -4.121)">
</image>
<path class="st0" d="M112.8,0l169.4,60.7v84.7L49.1,24.4L112.8,0z M282.3,167.1L49.1,53.1L67,121.2l126.8,117.2L282.3,167.1z
	 M209.6,254.1l47.1,312.4l25.5,21.7V195.7L209.6,254.1z"/>
<path class="st0" d="M542.1,24.4L309,145.4V60.7L478.4,0L542.1,24.4z M397.5,238.4l126.8-117.2l17.8-68.2L309,167.1L397.5,238.4z
	 M309,195.7v392.4l25.5-21.7l47.1-312.4L309,195.7z"/>
</svg>
